HIERARCHY
ROOT Hips
{
	OFFSET 0.00000 0.00000 0.00000
	CHANNELS 6 Xposition Yposition Zposition Zrotation Yrotation Xrotation 
	JOINT LHipJoint
	{
		OFFSET 0 0 0
		CHANNELS 3 Zrotation Yrotation Xrotation
		JOINT LeftUpLeg
		{
			OFFSET 2.36090 -1.39315 1.24752
			CHANNELS 3 Zrotation Yrotation Xrotation
			JOINT LeftLeg
			{
				OFFSET 2.06810 -5.68207 0.00000
				CHANNELS 3 Zrotation Yrotation Xrotation
				JOINT LeftFoot
				{
					OFFSET 2.46631 -6.77613 0.00000
					CHANNELS 3 Zrotation Yrotation Xrotation
					JOINT LeftToeBase
					{
						OFFSET 0.26031 -0.71520 1.99545
						CHANNELS 3 Zrotation Yrotation Xrotation
						End Site
						{
							OFFSET 0.00000 -0.00000 1.05957
						}
					}
				}
			}
		}
	}
	JOINT RHipJoint
	{
		OFFSET 0 0 0
		CHANNELS 3 Zrotation Yrotation Xrotation
		JOINT RightUpLeg
		{
			OFFSET -2.25243 -1.39315 1.24752
			CHANNELS 3 Zrotation Yrotation Xrotation
			JOINT RightLeg
			{
				OFFSET -2.17343 -5.97145 0.00000
				CHANNELS 3 Zrotation Yrotation Xrotation
				JOINT RightFoot
				{
					OFFSET -2.52372 -6.93386 0.00000
					CHANNELS 3 Zrotation Yrotation Xrotation
					JOINT RightToeBase
					{
						OFFSET -0.22538 -0.61923 2.11447
						CHANNELS 3 Zrotation Yrotation Xrotation
						End Site
						{
							OFFSET -0.00000 -0.00000 1.10506
						}
					}
				}
			}
		}
	}
	JOINT LowerBack
	{
		OFFSET 0 0 0
		CHANNELS 3 Zrotation Yrotation Xrotation
		JOINT Spine
		{
			OFFSET 0.01594 2.13103 0.08007
			CHANNELS 3 Zrotation Yrotation Xrotation
			JOINT Spine1
			{
				OFFSET 0.01393 2.09723 0.18338
				CHANNELS 3 Zrotation Yrotation Xrotation
				JOINT Neck
				{
					OFFSET 0 0 0
					CHANNELS 3 Zrotation Yrotation Xrotation
					JOINT Neck1
					{
						OFFSET 0.05351 1.38915 0.32494
						CHANNELS 3 Zrotation Yrotation Xrotation
						JOINT Head
						{
							OFFSET 0.00711 1.45992 -0.21666
							CHANNELS 3 Zrotation Yrotation Xrotation
							End Site
							{
								OFFSET -0.00433 1.47702 -0.11056
							}
						}
					}
				}
				JOINT LeftShoulder
				{
					OFFSET 0 0 0
					CHANNELS 3 Zrotation Yrotation Xrotation
					JOINT LeftArm
					{
						OFFSET 2.87198 0.92249 0.11132
						CHANNELS 3 Zrotation Yrotation Xrotation
						JOINT LeftForeArm
						{
							OFFSET 5.52731 -0.00000 0.00000
							CHANNELS 3 Zrotation Yrotation Xrotation
							JOINT LeftHand
							{
								OFFSET 3.11059 -0.00000 0.00000
								CHANNELS 3 Zrotation Yrotation Xrotation
								JOINT LeftFingerBase
								{
									OFFSET 0 0 0
									CHANNELS 3 Zrotation Yrotation Xrotation
									JOINT LeftHandIndex1
									{
										OFFSET 0.41963 -0.00000 0.00000
										CHANNELS 3 Zrotation Yrotation Xrotation
										End Site
										{
											OFFSET 0.33831 -0.00000 0.00000
										}
									}
								}
								JOINT LThumb
								{
									OFFSET 0 0 0
									CHANNELS 3 Zrotation Yrotation Xrotation
									End Site
									{
										OFFSET 0.34348 -0.00000 0.34348
									}
								}
							}
						}
					}
				}
				JOINT RightShoulder
				{
					OFFSET 0 0 0
					CHANNELS 3 Zrotation Yrotation Xrotation
					JOINT RightArm
					{
						OFFSET -2.94710 0.68072 0.32187
						CHANNELS 3 Zrotation Yrotation Xrotation
						JOINT RightForeArm
						{
							OFFSET -5.25396 -0.00000 -0.00000
							CHANNELS 3 Zrotation Yrotation Xrotation
							JOINT RightHand
							{
								OFFSET -3.10567 -0.00000 0.00000
								CHANNELS 3 Zrotation Yrotation Xrotation
								JOINT RightFingerBase
								{
									OFFSET 0 0 0
									CHANNELS 3 Zrotation Yrotation Xrotation
									JOINT RightHandIndex1
									{
										OFFSET -0.49868 -0.00000 0.00000
										CHANNELS 3 Zrotation Yrotation Xrotation
										End Site
										{
											OFFSET -0.40204 -0.00000 0.00000
										}
									}
								}
								JOINT RThumb
								{
									OFFSET 0 0 0
									CHANNELS 3 Zrotation Yrotation Xrotation
									End Site
									{
										OFFSET -0.40818 -0.00000 0.40818
									}
								}
							}
						}
					}
				}
			}
		}
	}
}
MOTION
Frames: 9
Frame Time: .0083333
7.5679 2.2887 23.6414 0 0 0 0 0 0 -21 0 0 0 0 0 0 0 0 0 0 0 0 0 0 21 0 0 0 0 0 0 0 0 0 0 0 0 0 0 0 0 0 0 0 0 0 0 -16 0 0 21 0 0 11 0 0 0 -8 0 0 0 0 0 0 0 0 0 0 0 0 0 0 0 0 0 0 0 0 8 0 0 0 0 0 0 0 0 0 0 0 0 0 0 0 0 0
7.5679 2.2887 23.6414 -155.5770 -37.8298 2.8411 0.0000 0.0000 0.0000 -7.8345 -26.8122 74.6613 0.0000 -0.0000 -0.0000 2.4444 2.1484 29.0316 3.8312 11.9323 35.4928 0.0000 0.0000 0.0000 -14.0324 -43.3228 28.1954 -26.6886 -18.8917 109.9100 2.7016 27.6424 12.7198 -0.2448 -3.1840 8.7915 17.6311 -19.1227 49.7796 4.5809 -18.3467 10.0106 5.8864 -11.0085 -8.6596 5.7016 3.6827 -27.5216 -1.7228 3.3484 28.7167 -0.9989 1.7554 14.6745 0.0000 0.0000 0.0000 -69.0022 19.0795 39.8648 104.4846 -59.1922 -72.5100 -0.0000 0.0000 -38.2193 -18.5583 2.0612 -0.6918 -7.1250 0.0000 -0.0000 -34.1006 30.3424 14.6824 0.0000 0.0000 0.0000 59.4542 -8.9316 33.0196 -116.1454 57.2525 -82.4337 0.0000 -0.0000 -8.5081 21.0625 -12.3610 -4.7129 7.1250 -0.0000 -0.0000 39.9965 -38.8691 7.5434
7.5828 2.2872 23.6483 -155.5560 -37.7933 2.8413 0.0000 0.0000 0.0000 -7.8629 -26.8269 74.6427 0.0000 -0.0000 -0.0000 2.4557 2.1005 29.1126 3.8495 11.9574 35.5816 0.0000 0.0000 0.0000 -15.2734 -43.0458 28.7527 -26.9651 -18.7947 110.7661 2.8804 28.4341 12.9436 -0.2688 -3.3354 9.2139 17.6905 -19.1232 49.6872 4.5757 -18.3395 10.0582 5.8349 -11.0049 -8.6018 5.7587 3.6920 -27.5618 -1.7867 3.3551 28.6375 -1.0325 1.7553 14.6507 0.0000 -0.0000 0.0000 -69.0299 18.9466 39.8944 104.3086 -59.2121 -72.3588 -0.0000 0.0000 -38.2147 -18.5230 2.0356 -0.6818 -7.1250 0.0000 -0.0000 -34.0694 30.3234 14.6826 0.0000 -0.0000 0.0000 59.5164 -8.8916 32.8669 -116.1693 57.2472 -82.4538 0.0000 -0.0000 -8.5259 21.1287 -12.3609 -4.7291 7.1250 -0.0000 -0.0000 40.0410 -38.8609 7.5668
7.5970 2.2857 23.6549 -155.5340 -37.7487 2.8379 0.0000 0.0000 0.0000 -7.8940 -26.8563 74.6214 0.0000 -0.0000 -0.0000 2.4592 2.1308 29.1263 3.8808 12.0001 35.7325 0.0000 0.0000 0.0000 -16.5026 -42.7710 29.3341 -27.2204 -18.7011 111.5605 3.0677 29.2294 13.1578 -0.2718 -3.3532 9.2638 17.7423 -19.1301 49.6096 4.5759 -18.3415 10.0946 5.8001 -11.0065 -8.5555 5.7890 3.7040 -27.5692 -1.8267 3.3722 28.5284 -1.0498 1.7605 14.6061 -0.0000 0.0000 0.0000 -69.0413 18.8072 39.9217 104.1325 -59.2317 -72.2076 -0.0000 0.0000 -38.2311 -18.5112 1.9862 -0.6648 -7.1250 0.0000 -0.0000 -34.0453 30.2813 14.7109 -0.0000 0.0000 0.0000 59.5426 -8.8394 32.7656 -116.1829 57.2441 -82.4653 0.0000 -0.0000 -8.5441 21.0826 -12.3652 -4.7194 7.1250 -0.0000 -0.0000 40.0121 -38.8701 7.5466
7.6112 2.2839 23.6610 -155.3700 -37.7635 2.9253 0.0000 0.0000 0.0000 -7.9500 -26.8388 74.4085 0.0000 0.0000 0.0000 2.4578 1.9495 29.1629 3.8538 11.9632 35.6020 0.0000 0.0000 0.0000 -17.5093 -42.5227 29.7211 -27.4411 -18.6170 112.2503 3.2578 30.0002 13.2153 -0.2643 -3.3074 9.1357 17.6234 -19.0390 49.4249 4.6363 -18.3146 10.0855 5.8684 -10.9893 -8.5325 5.7438 3.7247 -27.5579 -1.8770 3.4427 28.4476 -1.0482 1.7779 14.5710 0.0000 0.0000 0.0000 -69.2078 18.7590 39.9114 103.9882 -59.2476 -72.0835 -0.0000 0.0000 -38.1992 -18.5291 2.0076 -0.6727 -7.1250 0.0000 -0.0000 -34.0640 30.2984 14.7050 0.0000 0.0000 0.0000 59.4535 -8.8146 32.7183 -116.2325 57.2330 -82.5069 0.0000 -0.0000 -8.5800 21.1327 -12.4081 -4.7477 7.1250 -0.0000 -0.0000 40.0674 -38.8996 7.5250
7.6252 2.2824 23.6671 -155.2460 -37.7603 2.9877 0.0000 0.0000 0.0000 -7.9980 -26.8379 74.2487 0.0000 0.0000 0.0000 2.4584 1.8438 29.1930 3.8509 11.9593 35.5880 0.0000 0.0000 0.0000 -18.6080 -42.2394 30.1770 -27.6643 -18.5290 112.9510 3.4557 30.7758 13.3675 -0.2661 -3.3187 9.1673 17.5649 -18.9778 49.2541 4.6663 -18.2962 10.0994 5.8856 -10.9759 -8.4945 5.7386 3.7401 -27.5559 -1.9251 3.4847 28.3602 -1.0580 1.7883 14.5346 -0.0000 0.0000 0.0000 -69.2988 18.6737 39.9271 103.8285 -59.2650 -71.9462 -0.0000 0.0000 -38.1925 -18.5322 2.0072 -0.6727 -7.1250 0.0000 -0.0000 -34.0658 30.2977 14.7068 -0.0000 0.0000 0.0000 59.4218 -8.7834 32.6434 -116.2666 57.2254 -82.5356 0.0000 -0.0000 -8.6074 21.1507 -12.4365 -4.7628 7.1250 -0.0000 -0.0000 40.0937 -38.9210 7.5053
7.6391 2.2812 23.6729 -155.0880 -37.7680 3.0715 0.0000 0.0000 0.0000 -8.0521 -26.8329 74.0412 0.0000 0.0000 0.0000 2.4570 1.7191 29.2162 3.8435 11.9492 35.5526 0.0000 0.0000 0.0000 -19.6565 -41.9573 30.5934 -27.8707 -18.4448 113.6019 3.6563 31.5324 13.5218 -0.2670 -3.3237 9.1814 17.4809 -18.8979 49.0385 4.6934 -18.2731 10.1135 5.9008 -10.9570 -8.4532 5.7338 3.7540 -27.5483 -1.9697 3.5235 28.2752 -1.0672 1.7978 14.4981 0.0000 -0.0000 0.0000 -69.3808 18.5942 39.9534 103.6703 -59.2820 -71.8102 -0.0000 0.0000 -38.1906 -18.5405 2.0162 -0.6760 -7.1250 0.0000 -0.0000 -34.0740 30.3047 14.7047 0.0000 -0.0000 0.0000 59.3902 -8.7599 32.5741 -116.3041 57.2170 -82.5672 0.0000 -0.0000 -8.6341 21.1643 -12.4707 -4.7790 7.1250 -0.0000 -0.0000 40.1200 -38.9476 7.4787
7.6528 2.2803 23.6785 -154.8940 -37.7869 3.1779 0.0000 0.0000 0.0000 -8.1129 -26.8238 73.7834 0.0000 -0.0000 -0.0000 2.4542 1.5736 29.2371 3.8310 11.9320 35.4920 0.0000 0.0000 0.0000 -20.6522 -41.6809 30.9693 -28.0612 -18.3647 114.2052 3.8578 32.2651 13.6743 -0.2681 -3.3310 9.2016 17.3750 -18.7992 48.7684 4.7120 -18.2451 10.1323 5.9047 -10.9317 -8.4043 5.7377 3.7657 -27.5373 -2.0112 3.5539 28.1945 -1.0783 1.8053 14.4627 0.0000 -0.0000 0.0000 -69.4435 18.5180 39.9949 103.5131 -59.2987 -71.6751 -0.0000 0.0000 -38.1941 -18.5530 2.0338 -0.6824 -7.1250 0.0000 -0.0000 -34.0879 30.3189 14.6987 0.0000 -0.0000 0.0000 59.3698 -8.7457 32.5045 -116.3433 57.2081 -82.6002 0.0000 -0.0000 -8.6583 21.1784 -12.5087 -4.7967 7.1250 -0.0000 -0.0000 40.1485 -38.9775 7.4487
7.6664 2.2798 23.6839 -154.6640 -37.8161 3.3054 0.0000 0.0000 0.0000 -8.1803 -26.8122 73.4773 0.0000 0.0000 0.0000 2.4504 1.4149 29.2563 3.8141 11.9089 35.4103 0.0000 0.0000 0.0000 -21.5945 -41.4133 31.3045 -28.2340 -18.2900 114.7547 4.0586 32.9698 13.8329 -0.2695 -3.3397 9.2260 17.2508 -18.6842 48.4420 4.7181 -18.2140 10.1584 5.8919 -10.9008 -8.3452 5.7566 3.7755 -27.5219 -2.0497 3.5735 28.1166 -1.0930 1.8103 14.4276 -0.0000 0.0000 0.0000 -69.4794 18.4428 40.0531 103.3572 -59.3150 -71.5411 -0.0000 0.0000 -38.2035 -18.5682 2.0545 -0.6900 -7.1250 0.0000 -0.0000 -34.1046 30.3356 14.6919 -0.0000 0.0000 0.0000 59.3665 -8.7396 32.4335 -116.3825 57.1993 -82.6331 0.0000 -0.0000 -8.6787 21.1887 -12.5472 -4.8138 7.1250 -0.0000 -0.0000 40.1747 -39.0082 7.4168
